<?xml version="1.0" standalone="no"?>
<!DOCTYPE svg PUBLIC "-//W3C//DTD SVG 20010904//EN"
 "http://www.w3.org/TR/2001/REC-SVG-20010904/DTD/svg10.dtd">
<svg version="1.0" xmlns="http://www.w3.org/2000/svg"
 width="512.000000pt" height="512.000000pt" viewBox="0 0 512.000000 512.000000"
 preserveAspectRatio="xMidYMid meet">
<metadata>
Created by potrace 1.14, written by Peter Selinger 2001-2017
</metadata>
<g transform="translate(0.000000,512.000000) scale(0.100000,-0.100000)"
fill="#000000" stroke="none">
<path d="M2430 4793 c-196 -30 -385 -122 -530 -259 -205 -194 -308 -451 -296
-740 3 -63 7 -118 10 -122 2 -4 7 -24 10 -45 3 -21 11 -47 16 -58 6 -10 9 -19
6 -19 -4 0 26 -76 56 -140 30 -63 102 -164 162 -228 148 -156 310 -242 541
-290 17 -3 91 -6 165 -6 107 0 152 5 219 23 349 92 603 342 698 688 24 87 27
114 26 248 0 118 -5 166 -21 227 -94 351 -357 611 -705 700 -78 20 -285 32
-357 21z m321 -343 c225 -75 396 -267 438 -490 15 -84 6 -234 -18 -309 -90
-276 -344 -457 -626 -447 -112 4 -167 18 -273 68 -161 76 -294 245 -336 425
-18 80 -18 206 0 286 59 254 278 453 539 491 66 9 214 -4 276 -24z"/>
<path d="M2410 2713 c-316 -43 -482 -102 -731 -258 -88 -55 -176 -129 -276
-233 -139 -144 -247 -311 -324 -499 -93 -228 -116 -371 -117 -728 0 -194 3
-273 13 -312 45 -168 179 -302 346 -347 81 -22 2397 -22 2478 0 170 45 311
192 351 364 9 43 8 595 -2 630 -3 8 -8 38 -12 65 -37 233 -151 493 -305 695
-152 199 -353 363 -575 470 -90 43 -256 103 -316 115 -12 2 -29 6 -38 9 -9 3
-33 8 -52 11 -19 3 -51 8 -70 11 -42 6 -334 12 -370 7z m395 -337 c455 -97
804 -399 960 -829 59 -166 73 -272 72 -557 l-2 -247 -28 -36 c-55 -72 28 -68
-1262 -65 l-1162 3 -37 29 c-66 50 -69 66 -63 366 6 285 15 352 72 510 161
446 562 772 1033 839 93 13 328 5 417 -13z"/>
</g>
</svg>
